# xmcd
#
# Track frame offsets: 
#        150
#        21447
#        38265
#        69800
#
# Disc length: 1494 seconds
#
# Revision: 6
# Processed by: cddbd v1.5.2PL0 Copyright (c) Steve Scherf et al.
# Submitted via: ExactAudioCopy v0.99pb5
#
DISCID=2305d404
DTITLE=Pet Shop Boys - Somewhere [CD 1)
DYEAR=1997
DGENRE=Pop
TTITLE0=Somewhere
TTITLE1=The View From Your Balcony
TTITLE2=To Step Aside (Ralphi's Old School Dub)
TTITLE3=Somewhere (Forthright Vocal Mix)
EXTD=YEAR: 1997
EXTT0=
EXTT1=
EXTT2=
EXTT3=
PLAYORDER=
